<svg width="32" height="32" viewBox="0 0 32 32" xmlns="http://www.w3.org/2000/svg">
  <!-- Rocket body -->
  <path d="M16 4C16 4 20 8 20 12C20 16 18 20 16 24C14 20 12 16 12 12C12 8 16 4 16 4Z" fill="#4A90E2"/>
  <!-- Fins -->
  <path d="M12 12L10 16H12V20L14 18V14H18V18L20 20V16H22L20 12H12Z" fill="#2F80ED"/>
  <!-- Window -->
  <circle cx="16" cy="10" r="2" fill="#FFFFFF"/>
  <!-- Flame -->
  <path d="M14 24C14 26 15 28 16 28C17 28 18 26 18 24C18 22 16 20 16 20C16 20 14 22 14 24Z" fill="#FF6B6B"/>
</svg>
